<?xml version="1.0" encoding="UTF-8"?>
<svg version="1.1" viewBox="0 0 2048 2048" width="512" height="512" xmlns="http://www.w3.org/2000/svg">
<path transform="translate(1114,347)" d="m0 0h161l2 2-24 100-16 67-12 51-12 50-21 87-22 93-10 41-24 100-18 76-12 50-15 63-12 50-16 66-23 96-21 88-13 55-12 50-14 58-24 100-3 10-1 1h-163l-1-4 5-19 26-108 26-109 25-104 12-51 12-50 15-62 13-55 12-50 15-62 17-71 18-76 12-50 16-67 10-41 22-92 18-76 12-50 15-62 13-55 9-36 1-3z" fill="#00AC4E"/>
<path transform="translate(1436,788)" d="m0 0h211l8 7 9 9 7 8 33 33 7 8 30 30 7 8 28 28 7 8 24 24 7 8 34 34 7 8 30 30 7 8 16 16-1 4-10 10-7 8-28 28-7 8-27 27-1 2h-2l-2 4-31 31-7 8-27 27-7 8-34 34-7 8-26 26-1 2h-2l-2 4-31 31-5 1h-207l1-4 28-28 6-7h2l2-4 41-41 2-3h2l2-4 36-36 7-8 34-34 1-2h2l2-4h2l2-4 33-33 2-3h2l2-4 37-37 2-3h2l2-4 5-4-1-5-4-4v-2l-3-1-7-8-36-36-7-8-41-41v-2h-2v-2h-2l-7-8-33-33v-2h-2l-7-8-29-29v-2l-3-1-7-8-43-43-7-8-15-15-3-2z" fill="#00AC4E"/>
<path transform="translate(400,788)" d="m0 0h211l-2 4-8 7-2 3h-2v2h-2l-2 4-26 26-7 8-26 26-7 8-37 37-7 8-25 25-1 2h-2l-2 4-29 29-2 3h-2l-2 4-32 32-7 8-25 25-1 2h-2l3 5 19 19 7 8 24 24v2l4 2 7 8 24 24 7 8 34 34 7 8 30 30 7 8 28 28 7 8 24 24 7 8 20 20 1 3h-210l-8-7-13-13-7-8-23-23-7-8-21-21v-2h-2l-7-8-33-33-7-8-33-33-7-8-28-28-7-8-24-24-7-8-28-28 2-5 35-35 2-3h2l2-4 29-29 7-8 29-29 1-2h2l2-4 25-25 7-8 33-33 7-8 31-31 7-8z" fill="#00AC4E"/>
</svg>
