<?xml version="1.0" encoding="UTF-8"?>
<svg version="1.1" viewBox="0 0 1832 868" width="1832" height="868" xmlns="http://www.w3.org/2000/svg">
<path transform="translate(667,592)" d="m0 0h578l7 9v156l-6 8-3 3h-574l-7-8-2-4v-155z" fill="#00B147"/>
<path transform="translate(1032,180)" d="m0 0h57v296h-57l-1-30-9 10-9 8-14 8-10 4-14 3-10 1h-11l-15-2-17-5-17-9-11-9-9-9-10-14-8-16-5-15-3-16-1-10v-21l3-21 5-17 8-17 10-14 14-14 14-9 11-5 17-5 7-1h25l17 4 15 6 14 9 10 9 3 4zm-66 120-15 4-12 7-11 11-8 14-4 15-1 15 2 17 4 12 6 11 11 12 11 7 11 4 4 1h20l13-4 11-6 9-8 7-10 5-11 3-12 1-15-2-18-5-14-7-11-10-10-15-8-13-3z" fill="#FCFCFC"/>
<path transform="translate(428,193)" d="m0 0h21l18 2 20 5 19 8 14 8 14 11 12 12 10 14 10 19 3 8v4h-63l-6-9-7-9-7-7-14-8-15-5-6-1h-26l-16 4-10 4-11 7-11 10-9 13-7 15-4 16-1 7v30l3 16 6 16 8 14 11 12 10 7 12 6 13 4 6 1h26l16-4 16-8 12-11 9-14 1-2h65l-5 14-9 17-9 12-9 10-11 10-14 9-16 8-18 6-22 4h-36l-18-3-17-5-23-11-14-10-10-9-10-10-10-14-8-14-8-20-4-17-2-15v-28l3-20 6-21 9-19 10-15 12-14 11-10 18-12 19-9 21-6z" fill="#FCFCFC"/>
<path transform="translate(1227,251)" d="m0 0h29l20 4 14 5 15 8 13 10 7 7 10 14 8 16 5 16 2 12 1 11v13l-1 12-1 3h-162l4 17 6 12 9 10 11 7 9 3 5 1h18l12-3 10-6 5-5 9-12h60l-3 10-8 16-9 12-12 12-13 9-16 8-18 5-19 2h-12l-17-2-19-5-17-8-14-10-14-14-9-14-7-14-5-17-3-21v-20l3-21 5-17 8-16 7-11 12-13 12-9 17-9 20-6zm4 46-12 3-11 6-10 10-6 10-4 13v5h105l-2-13-4-10-7-9-10-8-12-5-9-2z" fill="#FCFCFC"/>
<path transform="translate(703,251)" d="m0 0h29l17 3 15 5 16 8 10 7 10 9 7 7 10 15 8 17 5 19 2 18v12l-2 18-5 19-8 17-9 13-11 12-11 9-17 10-16 6-19 4-12 1h-12l-18-2-15-4-17-7-11-7-10-8-10-10-10-14-8-17-5-17-2-12v-33l4-20 6-16 9-16 11-13 7-7 14-10 16-8 15-5zm3 49-13 4-11 7-9 9-8 14-4 16-1 18 2 18 5 15 7 11 8 8 12 7 16 4h11l14-3 16-8 10-10 8-14 4-14 1-7v-20l-3-16-4-10-7-10-8-8-10-6-10-4-5-1z" fill="#FCFCFC"/>
<path transform="translate(1485,100)" d="m0 0h55l-4 19-27 112-21 88-29 121-22 92-4 16h-55l2-11 58-242 22-92 24-101z" fill="#00B147"/>
<path transform="translate(1594,244)" d="m0 0h71l16 16 7 8 30 30 7 8 26 26-1 4-24 24-7 8-29 29-7 8-18 18h-71l6-7 25-25 7-8 37-37 7-8 4-5-19-19-7-8-37-37-7-8-16-16z" fill="#00B147"/>
<path transform="translate(167,244)" d="m0 0h71l-6 7-20 20-7 8-29 29-7 8-17 17 6 7 10 10 7 8 29 29 7 8 27 27v1h-71l-16-16-7-8-29-29-7-8-27-27 2-4 9-10 29-29 7-8 29-29 7-8z" fill="#00B147"/>
<path transform="translate(754,654)" d="m0 0h16l10 4 8 6 2 5h2l2-4 8-7 10-4h16l10 4 8 6 5 8 2 7 1 8v51h-21l-1-49-3-10-5-4-5-2h-10l-8 4-4 8-1 53h-21l-1-48-2-9-4-5-7-3h-10l-8 4-4 7-1 5-1 49h-21v-83h21v9l11-8z" fill="#FCFCFC"/>
<path transform="translate(394,608)" d="m0 0h21l1 38 8-7 10-4h18l10 4 10 9 5 8 3 9 1 6v12l-3 13-5 9-7 8-11 6-4 1h-17l-10-4-8-7-1 10h-21zm39 45-9 4-6 7-2 5-1 11 2 8 4 7 5 4 7 3h8l8-3 7-7 3-8v-14l-5-10-5-4-7-3z" fill="#FCFCFC"/>
<path transform="translate(1082,654)" d="m0 0h19l12 4 9 7 7 10 3 9 1 13-1 6h-61l5 12 7 5 4 1h9l8-4 4-5h22l-1 5-6 9-9 8-9 4-4 1h-18l-12-4-8-6-7-8-5-12-1-5v-15l3-11 4-8 7-8 14-7z" fill="#FCFCFC"/>
<path transform="translate(486,636)" d="m0 0h24l19 52 2 4 16-43 5-13h23l-8 20-19 45-18 43-6 14h-23l10-24 7-16-3-10-15-36-14-34z" fill="#FCFCFC"/>
<path transform="translate(936,654)" d="m0 0h19l11 4 8 7 4 8 1 8h-20l-3-6-4-3-3-1h-8l-6 3-1 6 5 5 26 8 8 5 5 6 2 6v8l-4 10-8 7-7 3-5 1h-18l-11-4-9-6-5-7-2-6v-4h21l4 7 7 3h8l7-2 1-8-3-3-30-10-6-4-6-7-1-3v-12l4-8 8-7z" fill="#FCFCFC"/>
<path transform="translate(1e3 634)" d="m0 0h21v21h18v17h-18l1 44 3 3 14 1v18h-19l-10-3-5-4-4-7-1-4v-48h-10v-17h10z" fill="#FCFCFC"/>
<path transform="translate(1188,654)" d="m0 0h7v22l-13 1-8 4-3 6-1 6-1 45h-21v-83h21l1 11 4-5 10-6z" fill="#FCFCFC"/>
<path transform="translate(873,655)" d="m0 0h21v83h-21z" fill="#FCFCFC"/>
<path transform="translate(1085,671)" d="m0 0h12l8 4 4 5 2 5v4h-39l1-8 6-7z" fill="#00B147"/>
<path transform="translate(883,620)" d="m0 0 8 2 5 5 1 9-4 6-5 3h-8l-6-4-3-5 1-9 5-5z" fill="#FCFCFC"/>
</svg>
